<svg width="32" height="32" viewBox="0 0 32 32" fill="none" xmlns="http://www.w3.org/2000/svg">
  <rect width="32" height="32" rx="8" fill="url(#gradient)"/>
  <path d="M16 6C12.6863 6 10 8.68629 10 12C10 13.3807 10.4193 14.6613 11.1716 15.7071L16 20.5355L20.8284 15.7071C21.5807 14.6613 22 13.3807 22 12C22 8.68629 19.3137 6 16 6Z" fill="white"/>
  <circle cx="16" cy="12" r="3" fill="url(#gradient)"/>
  <path d="M8 24C8 22.8954 8.89543 22 10 22H22C23.1046 22 24 22.8954 24 24V26H8V24Z" fill="white" opacity="0.8"/>
  <defs>
    <linearGradient id="gradient" x1="0" y1="0" x2="32" y2="32" gradientUnits="userSpaceOnUse">
      <stop stop-color="#EAB308"/>
      <stop offset="1" stop-color="#F59E0B"/>
    </linearGradient>
  </defs>
</svg>